<svg width="246" height="45" viewBox="0 0 246 45" fill="none" xmlns="http://www.w3.org/2000/svg">
<path d="M11.14 0.799998C15.62 0.799998 18.9 1.74 20.98 3.62C23.1 5.5 24.16 8.1 24.16 11.42C24.16 12.54 23.98 13.62 23.62 14.66C23.3 15.66 22.82 16.58 22.18 17.42C21.58 18.26 20.84 19 19.96 19.64C19.12 20.24 18.2 20.68 17.2 20.96C18.28 21.12 19.36 21.44 20.44 21.92C21.52 22.4 22.48 23.08 23.32 23.96C24.16 24.8 24.84 25.86 25.36 27.14C25.88 28.42 26.14 29.96 26.14 31.76C26.14 33.96 25.72 35.84 24.88 37.4C24.08 38.96 23 40.24 21.64 41.24C20.28 42.2 18.72 42.9 16.96 43.34C15.24 43.78 13.46 44 11.62 44H0.4V0.799998H11.14ZM5.5 22.94V40.1H11.5C12.7 40.1 13.84 39.96 14.92 39.68C16.04 39.4 17.04 38.94 17.92 38.3C18.8 37.62 19.5 36.76 20.02 35.72C20.54 34.64 20.8 33.32 20.8 31.76C20.8 28.88 20 26.7 18.4 25.22C16.8 23.7 14.42 22.94 11.26 22.94H5.5ZM5.5 4.34V19.28H11.02C13.78 19.28 15.8 18.6 17.08 17.24C18.4 15.88 19.06 14 19.06 11.6C19.06 9.04 18.32 7.2 16.84 6.08C15.4 4.92 13.46 4.34 11.02 4.34H5.5Z" fill="#CC9752"/>
<path d="M43.1602 35.18H35.1802V41.655H44.1752V44H32.3102V24.4H44.1752V26.745H35.1802V32.905H43.1602V35.18ZM64.0292 40.64C63.4458 41.76 62.5708 42.6933 61.4042 43.44C60.2608 44.1633 58.8142 44.525 57.0642 44.525C56.1542 44.525 55.2092 44.3617 54.2292 44.035C53.2492 43.7083 52.3508 43.16 51.5342 42.39C50.7175 41.5967 50.0408 40.535 49.5042 39.205C48.9908 37.875 48.7342 36.2067 48.7342 34.2C48.7342 32.24 49.0025 30.595 49.5392 29.265C50.0758 27.935 50.7525 26.8733 51.5692 26.08C52.4092 25.2867 53.3308 24.7267 54.3342 24.4C55.3375 24.05 56.2942 23.875 57.2042 23.875C58.8375 23.875 60.1792 24.225 61.2292 24.925C62.2792 25.6017 63.1075 26.43 63.7142 27.41L61.2992 28.6C60.9258 27.8767 60.3892 27.2933 59.6892 26.85C59.0125 26.4067 58.1842 26.185 57.2042 26.185C56.5742 26.185 55.9325 26.3133 55.2792 26.57C54.6258 26.8033 54.0308 27.235 53.4942 27.865C52.9808 28.4717 52.5492 29.2883 52.1992 30.315C51.8725 31.3417 51.7092 32.6367 51.7092 34.2C51.7092 35.74 51.8725 37.0233 52.1992 38.05C52.5492 39.0767 52.9808 39.905 53.4942 40.535C54.0308 41.1417 54.6142 41.5733 55.2442 41.83C55.8975 42.0633 56.5392 42.18 57.1692 42.18C58.2425 42.18 59.1525 41.935 59.8992 41.445C60.6692 40.9317 61.2525 40.2317 61.6492 39.345L64.0292 40.64ZM84.1009 24.4V44H81.1959V35.215H72.0259V44H69.1559V24.4H72.0259V32.87H81.1959V24.4H84.1009ZM137.945 35.18H129.965V41.655H138.96V44H127.095V24.4H138.96V26.745H129.965V32.905H137.945V35.18ZM155.419 32.345H147.194V41.62H156.469V44H144.219V18.8H156.469V21.18H147.194V30.035H155.419V32.345ZM204.602 44L202.957 39.275H194.207L192.527 44H189.622L196.972 24.4H200.402L207.717 44H204.602ZM194.977 37.035H202.187L198.652 26.71L194.977 37.035ZM223.401 44L221.756 39.275H213.006L211.326 44H208.421L215.771 24.4H219.201L226.516 44H223.401ZM213.776 37.035H220.986L217.451 26.71L213.776 37.035ZM241.675 44L236.565 36.79H232.855V44H230.02V24.4H235.235C236.425 24.4 237.51 24.5167 238.49 24.75C239.47 24.9833 240.31 25.3567 241.01 25.87C241.71 26.3833 242.258 27.0367 242.655 27.83C243.052 28.6 243.25 29.5217 243.25 30.595C243.25 32.2283 242.888 33.4883 242.165 34.375C241.442 35.2617 240.52 35.9033 239.4 36.3L245.035 44H241.675ZM232.855 26.57V34.62H235.165C236.915 34.62 238.21 34.3167 239.05 33.71C239.913 33.08 240.345 32.0417 240.345 30.595C240.345 29.2183 239.913 28.2033 239.05 27.55C238.21 26.8967 236.962 26.57 235.305 26.57H232.855Z" fill="black"/>
<path d="M100.346 0.799998C103.186 0.799998 105.786 1.14 108.146 1.82C110.546 2.46 112.586 3.6 114.266 5.24C115.986 6.88 117.326 9.1 118.286 11.9C119.246 14.66 119.726 18.16 119.726 22.4C119.726 26.52 119.246 29.96 118.286 32.72C117.366 35.48 116.046 37.7 114.326 39.38C112.606 41.06 110.566 42.26 108.206 42.98C105.846 43.66 103.266 44 100.466 44H92.6656V0.799998H100.346ZM97.7656 4.58V40.04H100.406C102.846 40.04 104.946 39.74 106.706 39.14C108.506 38.5 109.986 37.48 111.146 36.08C112.306 34.68 113.166 32.86 113.726 30.62C114.286 28.38 114.566 25.64 114.566 22.4C114.566 16.2 113.426 11.68 111.146 8.84C108.866 6 105.246 4.58 100.286 4.58H97.7656Z" fill="#CCCC00"/>
<path d="M188.689 0.799998L176.569 26.72V44H171.529V26.72L159.169 0.799998H164.749L174.169 21.44L183.709 0.799998H188.689Z" fill="#0F3B5F"/>
</svg>
