<?xml version="1.0" standalone="no"?>
<!DOCTYPE svg PUBLIC "-//W3C//DTD SVG 20010904//EN"
 "http://www.w3.org/TR/2001/REC-SVG-20010904/DTD/svg10.dtd">
<svg version="1.0" xmlns="http://www.w3.org/2000/svg"
 width="500.000000pt" height="500.000000pt" viewBox="0 0 500.000000 500.000000"
 preserveAspectRatio="xMidYMid meet">

<g transform="translate(0.000000,500.000000) scale(0.100000,-0.100000)"
fill="#000000" stroke="none">
<path d="M0 2500 l0 -2500 2500 0 2500 0 0 2500 0 2500 -2500 0 -2500 0 0
-2500z m1135 770 c48 -18 75 -58 75 -110 0 -61 -25 -93 -93 -119 -46 -18 -49
-20 -22 -21 48 -1 113 -36 135 -72 38 -63 17 -150 -45 -188 -46 -28 -107 -34
-279 -25 l-145 7 15 30 c40 77 41 387 2 465 -16 32 -16 32 11 36 56 9 321 6
346 -3z m2076 -2 c101 -30 162 -129 163 -264 0 -68 -4 -89 -28 -138 -32 -64
-85 -109 -150 -127 -36 -10 -292 -6 -303 5 -2 1 5 20 14 42 26 58 26 393 1
441 -10 18 -18 34 -18 37 0 17 268 20 321 4z m-846 -39 c-38 -42 -78 -119 -91
-174 -6 -28 -5 -28 25 13 54 73 154 102 236 68 54 -23 68 -62 75 -207 4 -94
10 -133 23 -152 9 -15 17 -29 17 -32 0 -3 -43 -5 -96 -5 l-95 0 48 48 c81 77
89 175 20 226 -37 27 -138 34 -190 13 -40 -17 -77 -68 -77 -107 1 -42 35 -104
80 -143 l44 -37 -98 0 c-90 0 -97 2 -91 18 29 68 36 124 33 277 -3 121 -8 169
-21 198 l-16 37 106 0 105 0 -37 -41z m1965 -39 c0 -44 -2 -80 -5 -80 -4 0
-20 8 -38 17 -25 13 -65 18 -184 21 l-153 4 0 -47 0 -46 98 6 c92 6 135 14
175 30 15 6 17 -1 17 -85 0 -90 0 -91 -22 -84 -57 18 -99 24 -180 24 l-88 0 0
-46 0 -47 149 5 c127 4 155 8 190 26 l41 22 0 -85 0 -85 -230 0 -231 0 17 31
c40 78 41 387 2 467 l-16 32 229 0 229 0 0 -80z m-2757 -51 c54 -15 106 -65
113 -110 5 -31 1 -42 -24 -70 l-30 -34 -151 -3 c-89 -2 -151 -7 -151 -13 0
-18 50 -56 81 -63 56 -11 149 -6 179 9 16 8 36 25 45 37 21 31 49 13 53 -34 6
-70 -75 -127 -181 -128 -135 0 -210 75 -210 210 0 156 120 243 276 199z m460
0 c21 -5 52 -23 69 -38 25 -22 31 -36 32 -70 1 -56 -25 -78 -50 -42 -9 13 -32
29 -50 37 -72 30 -220 8 -244 -37 -6 -10 -10 -32 -10 -49 0 -17 4 -39 10 -49
15 -29 84 -51 156 -51 71 0 113 16 139 52 21 31 49 13 53 -34 10 -119 -225
-176 -331 -80 -81 73 -80 252 1 325 46 42 147 58 225 36z m1679 1 c78 -22 130
-96 109 -154 -21 -53 -61 -66 -214 -66 -123 0 -138 -2 -135 -16 7 -36 56 -58
133 -62 86 -5 137 9 165 45 41 52 79 -12 44 -76 -26 -48 -72 -72 -149 -79
-141 -11 -235 73 -235 208 0 150 129 242 282 200z m-1872 -642 c-13 -22 -20
-51 -20 -86 0 -46 4 -58 29 -83 33 -32 56 -36 88 -14 45 31 52 118 17 187
l-15 28 109 0 108 0 -56 -57 c-67 -69 -180 -238 -180 -268 0 -37 27 -115 54
-156 14 -21 26 -41 26 -44 0 -3 -47 -5 -104 -5 l-104 0 34 68 c19 37 38 86 43
110 9 41 7 44 -59 145 -37 56 -91 126 -118 155 l-51 52 109 0 110 0 -20 -32z
m660 -110 c73 -38 82 -59 90 -201 4 -81 12 -134 22 -155 l16 -32 -34 0 c-34 0
-34 0 -34 45 l0 45 -38 -38 c-62 -62 -183 -82 -269 -43 -49 23 -63 45 -63 100
0 80 81 131 209 131 36 -1 84 -7 106 -15 21 -8 41 -12 44 -10 12 12 -26 56
-61 69 -76 31 -228 12 -228 -28 0 -20 -10 -20 -38 0 -32 22 -30 77 4 109 52
49 199 61 274 23z m486 -1 c54 -28 67 -60 76 -187 4 -64 14 -135 22 -158 l15
-42 -34 0 c-35 0 -35 1 -35 44 l0 44 -38 -38 c-77 -78 -245 -82 -306 -9 -47
56 -27 128 48 171 35 20 55 23 136 23 70 0 104 -5 128 -17 33 -17 33 -17 26 5
-3 12 -12 28 -18 36 -43 54 -254 55 -271 1 -8 -25 -20 -25 -45 0 -48 48 -7
117 85 141 48 13 176 4 211 -14z m462 -37 l3 -56 -69 4 c-81 5 -123 -12 -147
-58 -33 -63 -13 -132 58 -197 l47 -43 -100 0 -99 0 21 48 c18 38 22 66 22 152
0 86 -4 114 -22 153 l-21 47 60 0 c32 0 59 -2 59 -3 0 -2 -6 -17 -14 -33 -8
-16 -18 -42 -22 -59 -6 -26 -3 -24 26 18 41 60 90 87 150 84 l45 -2 3 -55z"/>
<path d="M840 3095 l0 -55 88 1 c107 0 153 14 166 51 18 50 -2 58 -135 58
l-119 0 0 -55z"/>
<path d="M848 3005 c-5 -5 -8 -36 -8 -70 l0 -62 46 -7 c74 -10 171 -7 199 6
45 20 47 78 5 110 -20 15 -50 20 -130 25 -58 3 -108 2 -112 -2z"/>
<path d="M2970 3004 l0 -146 128 4 c99 3 136 8 166 22 104 52 101 198 -7 246
-34 16 -65 20 -164 20 l-123 0 0 -146z"/>
<path d="M1384 3021 c-40 -18 -54 -36 -54 -68 0 -22 262 -15 285 8 20 20 10
46 -26 64 -41 22 -154 19 -205 -4z"/>
<path d="M3520 3018 c-31 -16 -46 -31 -51 -50 l-7 -28 123 0 c144 0 175 8 175
45 0 20 -8 29 -35 41 -54 22 -152 18 -205 -8z"/>
<path d="M2375 2201 c-58 -10 -85 -28 -85 -56 0 -36 32 -48 111 -43 49 4 80
13 113 32 25 15 46 29 46 32 0 9 -64 32 -105 37 -22 3 -58 2 -80 -2z"/>
<path d="M2840 2199 c-53 -11 -85 -38 -76 -67 8 -23 33 -32 92 -32 52 0 138
27 160 51 15 16 14 19 -13 32 -39 20 -109 27 -163 16z"/>
</g>
</svg>
